#!OML:ASF F:\VICON\USERDATA\INSTALL\rory3\rory3.ASF
:FULLY-SPECIFIED
:DEGREES
76
root 0.893594 17.8452 -15.0043 5.59556 -1.92878 0.133528
lowerback 4.45745 -0.260828 -1.353
upperback -2.06998 -0.331023 2.39451
thorax -4.6228 -0.0844326 3.27122
lowerneck -16.0148 -4.70697 -10.2916
upperneck 24.676 -5.33486 5.57871
head 11.0753 -2.73365 2.99137
rclavicle 2.18663e-015 3.97569e-015
rhumerus -32.748 -6.80875 -84.0882
rradius 30.4526
rwrist 10.7247
rhand -5.62168 9.28871
rfingers 7.12502
rthumb 20.196 -19.6814
lclavicle 2.18663e-015 3.97569e-015
lhumerus -29.7631 5.37925 91.0761
lradius 24.9569
lwrist -12.6576
lhand -13.2233 28.3059
lfingers 7.12502
lthumb 12.8779 57.8886
rfemur -8.34687 6.35646 20.1796
rtibia 18.8816
rfoot -10.6233 -8.58866
rtoes 2.33187
lfemur -8.26418 -4.47201 -19.2006
ltibia 18.7488
lfoot -12.2086 6.11301
ltoes -1.69947
77
root 0.883701 17.8476 -15.0316 5.74308 -1.65427 0.240492
lowerback 4.62253 -0.378419 -1.56324
upperback -2.0381 -0.501504 2.42469
thorax -4.67046 -0.161874 3.43772
lowerneck -15.8997 -4.68809 -10.3411
upperneck 24.5398 -5.31053 5.61304
head 11.0022 -2.72326 3.01561
rclavicle 1.42628e-014 -1.19271e-014
rhumerus -32.6735 -6.30523 -84.2885
rradius 30.7067
rwrist 10.4417
rhand -5.03734 8.88496
rfingers 7.12502
rthumb 20.7575 -20.0248
lclavicle 1.42628e-014 -1.19271e-014
lhumerus -29.6448 5.33455 91.1144
lradius 25.106
lwrist -12.3482
lhand -12.7228 29.4152
lfingers 7.12502
lthumb 13.3604 58.9668
rfemur -8.65471 6.36984 20.1149
rtibia 19.027
rfoot -10.5547 -8.89556
rtoes 2.04863
lfemur -8.6221 -4.37347 -19.2254
ltibia 18.7972
lfoot -12.113 5.78381
ltoes -2.37686
78
root 0.879236 17.8524 -15.056 5.89871 -1.48493 0.307393
lowerback 4.80279 -0.463179 -1.71013
upperback -2.03074 -0.622207 2.50289
thorax -4.75487 -0.214767 3.61573
lowerneck -15.8065 -4.68027 -10.5767
upperneck 24.4432 -5.27351 5.73548
head 10.956 -2.71404 3.1055
rclavicle -5.81445e-015 2.46493e-014
rhumerus -32.625 -5.56603 -84.504
rradius 31.0917
rwrist 9.77642
rhand -4.53725 8.04542
rfingers 7.12502
rthumb 21.238 -20.8111
lclavicle -5.81445e-015 2.46493e-014
lhumerus -29.5995 5.49387 91.1732
lradius 25.2995
lwrist -12.1803
lhand -12.5793 29.0981
lfingers 7.12502
lthumb 13.4987 58.6406
rfemur -8.98436 6.35471 20.0388
rtibia 19.1811
rfoot -10.5785 -8.9789
rtoes 2.94249
lfemur -8.97057 -4.23147 -19.2336
ltibia 18.8825
lfoot -12.0807 5.46403
ltoes -1.9658
79
root 0.881033 17.8523 -15.0769 5.92423 -1.39341 0.29407
lowerback 5.04201 -0.510093 -1.68228
upperback -1.95399 -0.68238 2.56402
thorax -4.80591 -0.244561 3.67226
lowerneck -15.9337 -4.64804 -10.7565
upperneck 24.544 -5.19521 5.84178
head 11.02 -2.6816 3.18665
rclavicle -1.34677e-014 1.59028e-014
rhumerus -32.6369 -4.91647 -84.7343
rradius 31.6599
rwrist 9.27976
rhand -4.53607 7.26643
rfingers 7.12502
rthumb 21.2391 -21.5899
lclavicle -1.34677e-014 1.59028e-014
lhumerus -29.6371 5.56408 91.2184
lradius 25.5853
lwrist -12.2174
lhand -13.1522 27.8029
lfingers 7.12502
lthumb 12.9465 57.3813
rfemur -9.15121 6.27974 20.0383
rtibia 19.3231
rfoot -10.5842 -8.98315
rtoes 3.56898
lfemur -9.19627 -4.11993 -19.2178
ltibia 18.9882
lfoot -11.9664 5.33657
ltoes -2.28646
80
root 0.884022 17.8458 -15.0951 5.88167 -1.46628 0.258918
lowerback 5.32087 -0.553188 -1.72169
upperback -1.86431 -0.739706 2.68561
thorax -4.8648 -0.269883 3.83099
lowerneck -15.8771 -4.56216 -10.8529
upperneck 24.5032 -5.01579 5.71571
head 10.9767 -2.62429 3.18308
rclavicle -5.46658e-016 -1.59028e-014
rhumerus -32.6527 -4.13522 -84.8875
rradius 32.1179
rwrist 9.00917
rhand -4.51064 6.81345
rfingers 7.12502
rthumb 21.2635 -22.0402
lclavicle -5.46658e-016 -1.59028e-014
lhumerus -29.8288 5.72033 91.3368
lradius 26.106
lwrist -11.9159
lhand -13.6063 27.0269
lfingers 7.12502
lthumb 12.5087 56.6325
rfemur -9.23167 6.21811 20.0651
rtibia 19.4348
rfoot -10.5359 -8.89386
rtoes 3.09612
lfemur -9.36283 -4.02504 -19.2077
ltibia 19.144
lfoot -11.8309 5.34929
ltoes -2.84337
81
root 0.882125 17.8445 -15.1155 5.87269 -1.51035 0.230349
lowerback 5.57344 -0.541291 -1.70244
upperback -1.78873 -0.723286 2.71002
thorax -4.93063 -0.261687 3.84786
lowerneck -15.6335 -4.53005 -10.8583
upperneck 24.3466 -4.9718 5.64557
head 10.8652 -2.61448 3.16507
rclavicle -1.08338e-014 -1.43125e-014
rhumerus -32.6115 -3.79587 -85.0021
rradius 32.3154
rwrist 8.89303
rhand -4.40239 6.74161
rfingers 7.12502
rthumb 21.3675 -22.1002
lclavicle -1.08338e-014 -1.43125e-014
lhumerus -29.931 5.67271 91.4098
lradius 26.6184
lwrist -11.5805
lhand -13.7582 26.9609
lfingers 7.12502
lthumb 12.3622 56.5754
rfemur -9.35766 6.28404 20.108
rtibia 19.5461
rfoot -10.4373 -8.95938
rtoes 3.04755
lfemur -9.54787 -4.03876 -19.1527
ltibia 19.3721
lfoot -11.8213 5.34464
ltoes -2.47037
82
root 0.881376 17.8481 -15.1388 5.91491 -1.62213 0.294088
lowerback 5.77719 -0.475656 -1.75251
upperback -1.68043 -0.643089 2.67848
thorax -4.93936 -0.222019 3.83752
lowerneck -15.4017 -4.50293 -10.8133
upperneck 24.0545 -4.95139 5.60906
head 10.7076 -2.60429 3.14552
rclavicle -4.57205e-015 -3.97569e-015
rhumerus -32.6217 -3.34117 -85.1962
rradius 32.7586
rwrist 8.50135
rhand -4.10243 6.27725
rfingers 7.12502
rthumb 21.6556 -22.5317
lclavicle -4.57205e-015 -3.97569e-015
lhumerus -29.8491 5.54862 91.4662
lradius 26.9846
lwrist -11.3986
lhand -13.597 27.3837
lfingers 7.12502
lthumb 12.5177 56.9888
rfemur -9.59639 6.40295 20.0129
rtibia 19.7051
rfoot -10.4236 -8.93986
rtoes 3.26807
lfemur -9.76055 -4.02203 -19.2118
ltibia 19.6328
lfoot -11.8953 5.42491
ltoes -2.035
83
root 0.884967 17.8486 -15.1582 6.01358 -1.82539 0.394614
lowerback 5.82659 -0.400571 -1.85507
upperback -1.50742 -0.552802 2.68172
thorax -4.79295 -0.178846 3.88831
lowerneck -15.4333 -4.46808 -10.9544
upperneck 23.8979 -4.87915 5.70661
head 10.656 -2.56949 3.21266
rclavicle 5.36719e-015 2.94201e-014
rhumerus -32.583 -2.87365 -85.3457
rradius 33.4779
rwrist 8.10016
rhand -3.57902 5.75087
rfingers 7.12502
rthumb 22.1582 -22.9993
lclavicle 5.36719e-015 2.94201e-014
lhumerus -29.625 5.57315 91.5382
lradius 27.1193
lwrist -11.2569
lhand -14.0269 27.0876
lfingers 7.12502
lthumb 12.1032 56.7176
rfemur -9.92453 6.41781 19.8359
rtibia 19.9033
rfoot -10.4909 -8.73478
rtoes 3.07716
lfemur -10.0442 -3.80373 -19.3524
ltibia 19.8882
lfoot -11.9264 5.43322
ltoes -1.80414
84
root 0.888834 17.8452 -15.1806 6.10608 -1.83958 0.434125
lowerback 5.90189 -0.370727 -1.75147
upperback -1.30795 -0.511315 2.60259
thorax -4.63185 -0.167688 3.74079
lowerneck -15.6552 -4.49657 -10.9648
upperneck 23.8884 -4.91986 5.82255
head 10.7023 -2.57136 3.24835
rclavicle -1.0138e-014 2.46493e-014
rhumerus -32.3814 -2.61725 -85.5594
rradius 33.9541
rwrist 7.86059
rhand -3.53374 6.26162
rfingers 7.12502
rthumb 22.2016 -22.4833
lclavicle -1.0138e-014 2.46493e-014
lhumerus -29.3922 5.4884 91.4834
lradius 27.2512
lwrist -11.1148
lhand -14.8027 26.231
lfingers 7.12502
lthumb 11.355 55.9036
rfemur -10.2756 6.22934 19.7511
rtibia 20.166
rfoot -10.4805 -8.5592
rtoes 2.72381
lfemur -10.3952 -3.68016 -19.4087
ltibia 20.1574
lfoot -11.918 5.34956
ltoes -1.39294
85
root 0.889731 17.8453 -15.2084 6.22112 -1.62255 0.488412
lowerback 6.17926 -0.395436 -1.64855
upperback -1.18723 -0.544178 2.48928
thorax -4.66201 -0.189403 3.56989
lowerneck -15.8284 -4.54766 -10.7726
upperneck 23.7646 -5.01843 5.81965
head 10.6931 -2.59425 3.19687
rclavicle -1.88845e-015 -1.35174e-014
rhumerus -32.341 -2.31069 -85.8538
rradius 34.5414
rwrist 7.46556
rhand -3.88206 6.92055
rfingers 7.12502
rthumb 21.8672 -21.8638
lclavicle -1.88845e-015 -1.35174e-014
lhumerus -29.2277 5.12067 91.4571
lradius 27.6333
lwrist -10.6675
lhand -14.9465 26.0184
lfingers 7.12502
lthumb 11.2164 55.6985
rfemur -10.6452 5.9793 19.6847
rtibia 20.4406
rfoot -10.4955 -8.54851
rtoes 2.65026
lfemur -10.8311 -3.69284 -19.4345
ltibia 20.4927
lfoot -11.9989 5.08878
ltoes -0.521013
86
root 0.888194 17.8448 -15.242 6.34884 -1.46029 0.576574
lowerback 6.55646 -0.42342 -1.69549
upperback -1.11997 -0.590181 2.44252
thorax -4.80207 -0.21008 3.55769
lowerneck -15.8116 -4.52544 -10.6757
upperneck 23.6118 -5.01023 5.82481
head 10.6295 -2.57902 3.18175
rclavicle 7.45443e-015 1.98785e-014
rhumerus -32.4844 -1.74366 -86.1518
rradius 35.6678
rwrist 6.19825
rhand -3.44187 6.35814
rfingers 7.12502
rthumb 22.2898 -22.3763
lclavicle 7.45443e-015 1.98785e-014
lhumerus -29.206 4.93911 91.4748
lradius 28.1549
lwrist -10.2605
lhand -14.9035 25.9639
lfingers 7.12502
lthumb 11.2578 55.6418
rfemur -11.0244 5.90791 19.5857
rtibia 20.7026
rfoot -10.5958 -8.63748
rtoes 2.62802
lfemur -11.3232 -3.62661 -19.4892
ltibia 20.8666
lfoot -12.0837 4.8328
ltoes 0.156665
87
root 0.886624 17.8409 -15.2763 6.40466 -1.46058 0.531133
lowerback 6.96075 -0.402757 -1.65352
upperback -0.961099 -0.562666 2.44696
thorax -4.86738 -0.198307 3.54029
lowerneck -16.019 -4.47741 -10.546
upperneck 23.5226 -4.93298 5.76191
head 10.6236 -2.5344 3.14485
rclavicle -1.46107e-014 7.95139e-016
rhumerus -32.3227 -1.40368 -86.3549
rradius 35.8711
rwrist 6.47413
rhand -4.74163 7.7747
rfingers 7.12502
rthumb 21.0416 -21.1038
lclavicle -1.46107e-014 7.95139e-016
lhumerus -29.1164 4.87056 91.4787
lradius 28.6724
lwrist -10.0771
lhand -14.9651 25.8977
lfingers 7.12502
lthumb 11.1984 55.5788
rfemur -11.3351 5.9879 19.6265
rtibia 20.954
rfoot -10.6343 -8.6971
rtoes 2.66456
lfemur -11.7267 -3.51144 -19.4159
ltibia 21.2506
lfoot -12.1123 4.8018
ltoes 0.147674
